<svg xmlns="http://www.w3.org/2000/svg" viewBox="0 0 400 400" width="400" height="400" role="img" aria-label="Buy Me a Water">
  <rect width="400" height="400" rx="92" fill="#FFDD00" />
  <defs>
    <clipPath id="bmw-glass">
      <path d="M138 150 L262 150 L246 322 Q244 334 232 334 L168 334 Q156 334 154 322 Z" />
    </clipPath>
  </defs>
  <!-- water fill (clipped to the glass) -->
  <path
    clip-path="url(#bmw-glass)"
    d="M118 216 C150 200 170 234 200 218 C232 202 252 234 282 214 L282 348 L118 348 Z"
    fill="#7FD4F5"
  />
  <!-- glass outline -->
  <path
    d="M138 150 L262 150 L246 322 Q244 334 232 334 L168 334 Q156 334 154 322 Z"
    fill="none"
    stroke="#0D0D2E"
    stroke-width="16"
    stroke-linejoin="round"
    stroke-linecap="round"
  />
  <!-- droplet -->
  <path
    d="M200 72 C182 104 170 120 170 138 C170 164 186 182 200 182 C214 182 230 164 230 138 C230 120 218 104 200 72 Z"
    fill="#7FD4F5"
    stroke="#0D0D2E"
    stroke-width="12"
    stroke-linejoin="round"
  />
</svg>
